<svg xmlns="http://www.w3.org/2000/svg" version="1.1" xmlns:xlink="http://www.w3.org/1999/xlink" xmlns:svgjs="http://svgjs.dev/svgjs" width="1000" height="625" viewBox="0 0 1000 625"><g transform="matrix(1,0,0,1,0,0)"><svg viewBox="0 0 512 320" data-background-color="#ffffff" preserveAspectRatio="xMidYMid meet" height="625" width="1000" xmlns="http://www.w3.org/2000/svg" xmlns:xlink="http://www.w3.org/1999/xlink"><g id="tight-bounds" transform="matrix(1,0,0,1,0,0)"><svg viewBox="0 0 512 320" height="320" width="512"><rect width="512" height="320" fill="url(#1a25d7ff-0425-4c33-9f7b-5ea7d55a9f91)" mask="url(#7ad4383b-f021-4671-9a06-de49c86a437a)" data-fill-palette-color="tertiary"></rect><g><svg></svg></g><g><svg viewBox="0 0 512 320" height="320" width="512"><g><path xmlns="http://www.w3.org/2000/svg" d="M96 160c0-88.366 71.634-160 160-160 88.366 0 160 71.634 160 160 0 88.366-71.634 160-160 160-88.366 0-160-71.634-160-160z" fill="url(#1a25d7ff-0425-4c33-9f7b-5ea7d55a9f91)" fill-rule="nonzero" stroke="none" stroke-width="1" stroke-linecap="butt" stroke-linejoin="miter" stroke-miterlimit="10" stroke-dasharray="" stroke-dashoffset="0" font-family="none" font-weight="none" font-size="none" text-anchor="none" style="mix-blend-mode: normal" data-fill-palette-color="tertiary"></path></g><g transform="matrix(1,0,0,1,153.6,121.89399804970543)"><svg viewBox="0 0 204.8 76.21200390058914" height="76.21200390058914" width="204.8"><g><svg viewBox="0 0 341.8149553918057 127.19923199999998" height="76.21200390058914" width="204.8"><g transform="matrix(1,0,0,1,135.99095539180576,36.26590486242957)"><svg viewBox="0 0 205.82399999999998 54.66742227514084" height="54.66742227514084" width="205.82399999999998"><g id="textblocktransform"><svg viewBox="0 0 205.82399999999998 54.66742227514084" height="54.66742227514084" width="205.82399999999998" id="textblock"><g><rect width="205.82399999999998" height="3.358438335669803" x="0" y="41.19734785812848" fill="#ffffff" opacity="1" stroke-width="0" stroke="transparent" fill-opacity="1" class="rect-o-0" data-fill-palette-color="quaternary" rx="1%" id="o-0" data-palette-color="#ffffff"></rect></g><g transform="matrix(1,0,0,1,0.5119999999999862,0)"><svg viewBox="0 0 204.8 37.241072331815886" height="37.241072331815886" width="204.8"><g transform="matrix(1,0,0,1,0,0)"><svg width="204.8" viewBox="2.690000057220459 -34.689998626708984 193.0500030517578 35.1099967956543" height="37.241072331815886" data-palette-color="#ffffff"><path d="M13.99-10.18L13.99-34.69 18.14-34.69 18.14-10.4Q18.14-7.69 17.65-5.88 17.16-4.08 15.75-2.59L15.75-2.59Q12.89 0.42 7.47 0.42L7.47 0.42Q5.03 0.42 2.69-0.17L2.69-0.17 3.34-3.64Q4.98-3.25 6.79-3.25L6.79-3.25Q8.28-3.25 9.45-3.55 10.62-3.86 11.36-4.28 12.11-4.71 12.65-5.41 13.18-6.1 13.43-6.65 13.67-7.2 13.82-8 13.96-8.79 13.98-9.18 13.99-9.57 13.99-10.18L13.99-10.18ZM50.68 0L30.34 0 30.34-34.69 50.68-34.69 50.68-31.03 34.49-31.03 34.49-19.7 49.34-19.7 49.34-16.04 34.49-16.04 34.49-3.66 50.68-3.66 50.68 0ZM84.57-25.17L84.57-25.17Q84.57-23.44 84.15-21.88 83.74-20.31 82.86-18.9 81.98-17.48 80.43-16.44 78.88-15.41 76.8-14.92L76.8-14.92 86.59 0 81.95 0 72.55-14.45 65.84-14.45 65.84 0 61.66 0 61.66-34.69 74.41-34.69Q75.29-34.69 76-34.64 76.7-34.59 77.81-34.39 78.93-34.18 79.78-33.83 80.63-33.47 81.57-32.75 82.51-32.03 83.14-31.05 83.76-30.08 84.16-28.56 84.57-27.05 84.57-25.17ZM65.84-31.05L65.84-18.12 71.82-18.12Q73.07-18.12 74.02-18.2 74.97-18.29 76.25-18.66 77.53-19.04 78.38-19.71 79.22-20.39 79.82-21.67 80.41-22.95 80.41-24.71L80.41-24.71Q80.41-25.95 80.1-26.95 79.78-27.95 79.29-28.6 78.8-29.25 78.1-29.72 77.39-30.2 76.73-30.44 76.07-30.69 75.26-30.83 74.46-30.98 73.93-31.02 73.41-31.05 72.82-31.05L72.82-31.05 65.84-31.05ZM103.92 0L93.11-34.69 97.5-34.69 106.22-5.54 115.01-34.69 119.18-34.69 128.22-5.54 136.69-34.69 141.08-34.69 130.39 0 125.97 0 116.86-28.98 108.34 0 103.92 0ZM150.36 0L150.36-34.69 154.51-34.69 154.51 0 150.36 0ZM167.44 0L167.44-34.69 172.69-34.69 191.59-5.66 191.59-34.69 195.74-34.69 195.74 0 190.49 0 171.59-29.08 171.59 0 167.44 0Z" opacity="1" transform="matrix(1,0,0,1,0,0)" fill="#ffffff" class="wordmark-text-0" data-fill-palette-color="quaternary" id="text-0"></path></svg></g></svg></g><g transform="matrix(1,0,0,1,0,48.51206172011088)"><svg viewBox="0 0 120.23807999999998 6.155360555029958" height="6.155360555029958" width="120.23807999999998"><g transform="matrix(1,0,0,1,0,0)"><svg width="120.23807999999998" viewBox="2.4000000953674316 -39.5 951.199951171875 48.70000076293945" height="6.155360555029958" data-palette-color="#ffffff"><path d="M24.1-4.55L24.3-4.55 33.95-36 45.65-36 45.65-33.85 41.45-32.8 41.45-3.2 45.65-2.15 45.65 0 32.8 0 32.8-2.15 36.45-3.2 36.45-32.75 26.15 0 20.25 0 9.85-32.75 9.85-3.2 13.5-2.15 13.5 0 2.4 0 2.4-2.15 6.6-3.2 6.6-32.8 2.4-33.85 2.4-36 14.3-36 24.1-4.55ZM49.7-5.85L49.7-5.85Q49.7-9.75 53.35-12 57-14.25 65.45-15.5L65.45-15.5Q65.25-18.45 64.9-20.1 64.55-21.75 64-22.75L64-22.75Q63.3-24.05 62.05-24.68 60.8-25.3 59.35-25.3L59.35-25.3Q57.95-25.3 56.82-24.8 55.7-24.3 55.3-23.45L55.3-23.45Q56-22.95 56.32-22.15 56.65-21.35 56.65-20.65L56.65-20.65Q56.65-19.4 55.82-18.68 55-17.95 53.8-17.95L53.8-17.95Q52.6-17.95 51.82-18.75 51.05-19.55 51.05-21L51.05-21Q51.05-23.1 52.5-24.55 53.95-26 56.17-26.75 58.4-27.5 60.65-27.5L60.65-27.5Q62.7-27.5 64.42-26.88 66.15-26.25 67.35-25.05L67.35-25.05Q70.45-21.95 70.45-14.05L70.45-14.05 70.45-6.8Q70.45-4.35 70.77-3.4 71.1-2.45 72.2-2.45L72.2-2.45 74.45-2.45 74.45-0.95Q70.85 0.5 68.85 0.5L68.85 0.5Q67.3 0.5 66.77-0.63 66.25-1.75 66.25-4.95L66.25-4.95 66.05-4.95Q64.5-2.4 61.95-0.95 59.4 0.5 56.45 0.5L56.45 0.5Q53.3 0.5 51.5-1.2 49.7-2.9 49.7-5.85ZM58.55-2.4L58.55-2.4Q59.95-2.4 61.47-3.13 63-3.85 64.05-5.15L64.05-5.15Q64.85-6.15 65.22-7.53 65.6-8.9 65.6-10.75L65.6-10.75Q65.6-11.6 65.55-12.43 65.5-13.25 65.4-14L65.4-14Q61.35-13.2 59.05-12.28 56.75-11.35 55.8-10.08 54.85-8.8 54.85-6.9L54.85-6.9Q54.85-4.75 55.82-3.58 56.8-2.4 58.55-2.4ZM93.15 0L93.15-2.05 96.1-3 88.4-13.4 84.6-10.2 84.6-3 88.45-2.05 88.45 0 75.9 0 75.9-2.05 79.75-3 79.75-36 75.9-36.95 75.9-39 84.6-39 84.6-12.55 95.25-24 91.95-24.95 91.95-27 102.7-27 102.7-24.95 99.05-24 91.5-16.25 101.45-2.9 104.1-2.05 104.1 0 93.15 0ZM128.24-13.2L128.24-13.2 110.79-13.2Q110.79-9.55 111.79-7.15L111.79-7.15Q112.79-4.85 114.64-3.85 116.49-2.85 118.64-2.85L118.64-2.85Q120.99-2.85 122.94-3.83 124.89-4.8 126.44-6.5L126.44-6.5 128.04-5.3Q126.29-2.9 123.79-1.2 121.29 0.5 117.34 0.5L117.34 0.5Q113.89 0.5 111.24-0.98 108.59-2.45 107.19-5.3L107.19-5.3Q106.44-6.85 106.09-8.75 105.74-10.65 105.74-12.8L105.74-12.8Q105.74-19.8 108.97-23.65 112.19-27.5 117.74-27.5L117.74-27.5Q122.84-27.5 125.62-24.33 128.39-21.15 128.39-15.55L128.39-15.55Q128.39-15.05 128.37-14.63 128.34-14.2 128.24-13.2ZM117.44-24.8L117.44-24.8Q111.44-24.8 110.84-15.65L110.84-15.65 123.34-15.65 123.34-17.3Q123.34-20.9 121.82-22.85 120.29-24.8 117.44-24.8ZM148.94-3L148.94-24 145.09-24.95 145.09-27 153.79-27 153.79-3 157.64-2.05 157.64 0 145.09 0 145.09-2.05 148.94-3ZM148.24-35.05L148.24-35.05Q148.24-36.5 149.09-37.35 149.94-38.2 151.34-38.2L151.34-38.2Q152.79-38.2 153.64-37.35 154.49-36.5 154.49-35.05L154.49-35.05Q154.49-33.65 153.64-32.8 152.79-31.95 151.34-31.95L151.34-31.95Q149.89-31.95 149.06-32.77 148.24-33.6 148.24-35.05ZM164.19-24.5L159.34-24.5 159.34-26.3 164.19-27 164.84-33.3 169.04-33.9 169.04-27 175.44-27 175.44-24.5 169.04-24.5 169.04-6.65Q169.04-4.95 169.09-4.33 169.14-3.7 169.29-3.3L169.29-3.3Q169.44-2.95 169.84-2.83 170.24-2.7 171.14-2.7L171.14-2.7 174.64-2.7 174.64-1.25Q172.24-0.35 170.41 0.08 168.59 0.5 167.49 0.5L167.49 0.5Q165.24 0.5 164.59-1.35L164.59-1.35Q164.39-1.95 164.29-2.9 164.19-3.85 164.19-5.7L164.19-5.7 164.19-24.5ZM199.18-24.95L195.73-24 200.88-6 201.48-3.05 201.73-3.05 202.33-6 208.18-27.5 211.78-27.5 217.83-6 218.43-3.05 218.63-3.05 219.23-6 224.23-24 220.98-24.95 220.98-27 230.48-27 230.48-24.95 227.78-24 220.33 0.5 215.18 0.5 209.23-19 203.43 0.5 198.28 0.5 190.63-24 187.98-24.95 187.98-27 199.18-27 199.18-24.95ZM257.23-13.75L257.23-13.75Q257.23-10.5 256.25-7.58 255.28-4.65 253.53-2.75L253.53-2.75Q252.03-1.1 249.83-0.3 247.63 0.5 244.83 0.5L244.83 0.5Q242.08 0.5 239.93-0.28 237.78-1.05 236.28-2.65L236.28-2.65Q234.58-4.5 233.65-7.23 232.73-9.95 232.73-13.15L232.73-13.15Q232.73-16.4 233.68-19.38 234.63-22.35 236.43-24.25L236.43-24.25Q238.03-25.95 240.15-26.73 242.28-27.5 245.03-27.5L245.03-27.5Q247.78-27.5 249.98-26.73 252.18-25.95 253.68-24.35L253.68-24.35Q255.43-22.5 256.33-19.73 257.23-16.95 257.23-13.75ZM238.08-13.7L238.08-13.7Q238.08-10.65 238.55-8.43 239.03-6.2 239.88-4.75L239.88-4.75Q240.73-3.5 241.9-2.8 243.08-2.1 244.98-2.1L244.98-2.1Q248.43-2.1 250.13-4.45L250.13-4.45Q251.03-5.75 251.45-8.05 251.88-10.35 251.88-13.35L251.88-13.35Q251.88-16.35 251.4-18.6 250.93-20.85 250.08-22.25L250.08-22.25Q249.28-23.55 248.05-24.23 246.83-24.9 244.93-24.9L244.93-24.9Q241.43-24.9 239.88-22.6L239.88-22.6Q238.08-19.8 238.08-13.7ZM276.38-24.1L276.38-24.1Q276.18-24.25 275.9-24.33 275.63-24.4 275.38-24.4L275.38-24.4Q274.78-24.4 274.08-23.85 273.38-23.3 272.73-22.38 272.08-21.45 271.53-20.25L271.53-20.25Q270.83-18.55 270.43-16.53 270.03-14.5 270.03-12.35L270.03-12.35 270.03-3 275.43-2.05 275.43 0 261.33 0 261.33-2.05 265.18-3 265.18-24 261.33-24.95 261.33-27 268.53-27 269.63-20.4 269.83-20.4Q270.98-23.8 272.93-25.65 274.88-27.5 277.23-27.5L277.23-27.5Q279.18-27.5 280.48-26.28 281.78-25.05 281.78-23L281.78-23Q281.78-21.5 281-20.63 280.23-19.75 278.93-19.75L278.93-19.75Q277.63-19.75 276.88-20.58 276.13-21.4 276.13-22.75L276.13-22.75Q276.13-23.05 276.18-23.33 276.23-23.6 276.38-24.1ZM300.92 0L300.92-2.05 303.87-3 296.17-13.4 292.37-10.2 292.37-3 296.22-2.05 296.22 0 283.67 0 283.67-2.05 287.52-3 287.52-36 283.67-36.95 283.67-39 292.37-39 292.37-12.55 303.02-24 299.72-24.95 299.72-27 310.47-27 310.47-24.95 306.82-24 299.27-16.25 309.22-2.9 311.87-2.05 311.87 0 300.92 0ZM318.27-5.9L318.27-5.9Q319.87-5.9 320.8-4.78 321.72-3.65 321.72-1.75L321.72-1.75Q321.72 0.95 320.22 3.18 318.72 5.4 315.52 7.45L315.52 7.45 314.42 6.2Q316.57 4.45 317.77 2.9 318.97 1.35 319.07 0.15L319.07 0.15 318.87 0Q318.62 0.45 317.62 0.45L317.62 0.45Q316.52 0.45 315.77-0.43 315.02-1.3 315.02-2.65L315.02-2.65Q315.02-4.1 315.92-5 316.82-5.9 318.27-5.9ZM339.07-2.05L342.92-3 342.92-24 339.07-24.95 339.07-27 346.27-27 347.37-22 347.57-22Q349.02-24.5 351.44-26 353.87-27.5 356.62-27.5L356.62-27.5Q358.67-27.5 360.27-26.73 361.87-25.95 362.62-24.8L362.62-24.8Q363.42-23.55 363.92-21.5L363.92-21.5Q365.52-24.3 368.07-25.9 370.62-27.5 373.52-27.5L373.52-27.5Q375.52-27.5 377.12-26.73 378.72-25.95 379.57-24.6L379.57-24.6Q380.17-23.65 380.52-22.15 380.87-20.65 381.02-18.28 381.17-15.9 381.17-12.25L381.17-12.25 381.17-3 385.02-2.05 385.02 0 372.97 0 372.97-2.05 376.32-3 376.32-14.15Q376.32-17.4 376.14-19 375.97-20.6 375.52-21.5L375.52-21.5Q374.92-22.7 373.84-23.33 372.77-23.95 371.32-23.95L371.32-23.95Q370.07-23.95 368.87-23.45 367.67-22.95 366.72-22.1L366.72-22.1Q365.62-21.1 365.09-19.75 364.57-18.4 364.47-16.35L364.47-16.35 364.47-3 367.82-2.05 367.82 0 356.27 0 356.27-2.05 359.62-3 359.62-14.15Q359.62-17.4 359.44-19 359.27-20.6 358.82-21.5L358.82-21.5Q358.22-22.7 357.14-23.33 356.07-23.95 354.62-23.95L354.62-23.95Q353.37-23.95 352.17-23.45 350.97-22.95 350.02-22.1L350.02-22.1Q348.92-21.1 348.39-19.75 347.87-18.4 347.77-16.35L347.77-16.35 347.77-3 351.12-2.05 351.12 0 339.07 0 339.07-2.05ZM387.91-5.85L387.91-5.85Q387.91-9.75 391.56-12 395.21-14.25 403.66-15.5L403.66-15.5Q403.46-18.45 403.11-20.1 402.76-21.75 402.21-22.75L402.21-22.75Q401.51-24.05 400.26-24.68 399.01-25.3 397.56-25.3L397.56-25.3Q396.16-25.3 395.04-24.8 393.91-24.3 393.51-23.45L393.51-23.45Q394.21-22.95 394.54-22.15 394.86-21.35 394.86-20.65L394.86-20.65Q394.86-19.4 394.04-18.68 393.21-17.95 392.01-17.95L392.01-17.95Q390.81-17.95 390.04-18.75 389.26-19.55 389.26-21L389.26-21Q389.26-23.1 390.71-24.55 392.16-26 394.39-26.75 396.61-27.5 398.86-27.5L398.86-27.5Q400.91-27.5 402.64-26.88 404.36-26.25 405.56-25.05L405.56-25.05Q408.66-21.95 408.66-14.05L408.66-14.05 408.66-6.8Q408.66-4.35 408.99-3.4 409.31-2.45 410.41-2.45L410.41-2.45 412.66-2.45 412.66-0.95Q409.06 0.5 407.06 0.5L407.06 0.5Q405.51 0.5 404.99-0.63 404.46-1.75 404.46-4.95L404.46-4.95 404.26-4.95Q402.71-2.4 400.16-0.95 397.61 0.5 394.66 0.5L394.66 0.5Q391.51 0.5 389.71-1.2 387.91-2.9 387.91-5.85ZM396.76-2.4L396.76-2.4Q398.16-2.4 399.69-3.13 401.21-3.85 402.26-5.15L402.26-5.15Q403.06-6.15 403.44-7.53 403.81-8.9 403.81-10.75L403.81-10.75Q403.81-11.6 403.76-12.43 403.71-13.25 403.61-14L403.61-14Q399.56-13.2 397.26-12.28 394.96-11.35 394.01-10.08 393.06-8.8 393.06-6.9L393.06-6.9Q393.06-4.75 394.04-3.58 395.01-2.4 396.76-2.4ZM431.36 0L431.36-2.05 434.31-3 426.61-13.4 422.81-10.2 422.81-3 426.66-2.05 426.66 0 414.11 0 414.11-2.05 417.96-3 417.96-36 414.11-36.95 414.11-39 422.81-39 422.81-12.55 433.46-24 430.16-24.95 430.16-27 440.91-27 440.91-24.95 437.26-24 429.71-16.25 439.66-2.9 442.31-2.05 442.31 0 431.36 0ZM466.46-13.2L466.46-13.2 449.01-13.2Q449.01-9.55 450.01-7.15L450.01-7.15Q451.01-4.85 452.86-3.85 454.71-2.85 456.86-2.85L456.86-2.85Q459.21-2.85 461.16-3.83 463.11-4.8 464.66-6.5L464.66-6.5 466.26-5.3Q464.51-2.9 462.01-1.2 459.51 0.5 455.56 0.5L455.56 0.5Q452.11 0.5 449.46-0.98 446.81-2.45 445.41-5.3L445.41-5.3Q444.66-6.85 444.31-8.75 443.96-10.65 443.96-12.8L443.96-12.8Q443.96-19.8 447.18-23.65 450.41-27.5 455.96-27.5L455.96-27.5Q461.06-27.5 463.83-24.33 466.61-21.15 466.61-15.55L466.61-15.55Q466.61-15.05 466.58-14.63 466.56-14.2 466.46-13.2ZM455.66-24.8L455.66-24.8Q449.66-24.8 449.06-15.65L449.06-15.65 461.56-15.65 461.56-17.3Q461.56-20.9 460.03-22.85 458.51-24.8 455.66-24.8ZM487.15-3L487.15-24 483.3-24.95 483.3-27 492-27 492-3 495.85-2.05 495.85 0 483.3 0 483.3-2.05 487.15-3ZM486.45-35.05L486.45-35.05Q486.45-36.5 487.3-37.35 488.15-38.2 489.55-38.2L489.55-38.2Q491-38.2 491.85-37.35 492.7-36.5 492.7-35.05L492.7-35.05Q492.7-33.65 491.85-32.8 491-31.95 489.55-31.95L489.55-31.95Q488.1-31.95 487.28-32.77 486.45-33.6 486.45-35.05ZM502.4-24.5L497.55-24.5 497.55-26.3 502.4-27 503.05-33.3 507.25-33.9 507.25-27 513.65-27 513.65-24.5 507.25-24.5 507.25-6.65Q507.25-4.95 507.3-4.33 507.35-3.7 507.5-3.3L507.5-3.3Q507.65-2.95 508.05-2.83 508.45-2.7 509.35-2.7L509.35-2.7 512.85-2.7 512.85-1.25Q510.45-0.35 508.63 0.08 506.8 0.5 505.7 0.5L505.7 0.5Q503.45 0.5 502.8-1.35L502.8-1.35Q502.6-1.95 502.5-2.9 502.4-3.85 502.4-5.7L502.4-5.7 502.4-24.5ZM543.7-24.1L543.7-24.1Q543.5-24.25 543.22-24.33 542.95-24.4 542.7-24.4L542.7-24.4Q542.1-24.4 541.39-23.85 540.7-23.3 540.05-22.38 539.39-21.45 538.85-20.25L538.85-20.25Q538.14-18.55 537.75-16.53 537.35-14.5 537.35-12.35L537.35-12.35 537.35-3 542.75-2.05 542.75 0 528.64 0 528.64-2.05 532.5-3 532.5-24 528.64-24.95 528.64-27 535.85-27 536.95-20.4 537.14-20.4Q538.3-23.8 540.25-25.65 542.2-27.5 544.55-27.5L544.55-27.5Q546.5-27.5 547.8-26.28 549.1-25.05 549.1-23L549.1-23Q549.1-21.5 548.32-20.63 547.55-19.75 546.25-19.75L546.25-19.75Q544.95-19.75 544.2-20.58 543.45-21.4 543.45-22.75L543.45-22.75Q543.45-23.05 543.5-23.33 543.55-23.6 543.7-24.1ZM555.39-3L555.39-24 551.54-24.95 551.54-27 560.24-27 560.24-3 564.09-2.05 564.09 0 551.54 0 551.54-2.05 555.39-3ZM554.69-35.05L554.69-35.05Q554.69-36.5 555.54-37.35 556.39-38.2 557.79-38.2L557.79-38.2Q559.24-38.2 560.09-37.35 560.94-36.5 560.94-35.05L560.94-35.05Q560.94-33.65 560.09-32.8 559.24-31.95 557.79-31.95L557.79-31.95Q556.34-31.95 555.52-32.77 554.69-33.6 554.69-35.05ZM590.69 0.5L590.69 0.5Q590.69 4.3 587.46 6.75 584.24 9.2 578.49 9.2L578.49 9.2Q574.69 9.2 572.09 8.45 569.49 7.7 568.16 6.3 566.84 4.9 566.84 2.95L566.84 2.95Q566.84 0.6 568.24-0.68 569.64-1.95 572.09-2.3L572.09-2.3 572.09-2.5Q568.79-3.45 568.79-6.4L568.79-6.4Q568.79-7.45 569.29-8.38 569.79-9.3 570.81-10.1 571.84-10.9 573.44-11.45L573.44-11.45Q570.99-12.35 569.64-14.25 568.29-16.15 568.29-18.9L568.29-18.9Q568.29-22.9 571.06-25.2 573.84-27.5 578.49-27.5L578.49-27.5Q580.84-27.5 582.69-26.93 584.54-26.35 585.84-25.2L585.84-25.2 587.54-25.8 592.14-28 592.99-28 592.99-23.6 592.14-23.6 588.64-24 586.94-24Q588.39-22 588.39-19.2L588.39-19.2Q588.39-15.25 585.66-12.98 582.94-10.7 578.14-10.7L578.14-10.7Q577.64-10.7 577.14-10.73 576.64-10.75 576.14-10.8L576.14-10.8Q574.14-10.5 573.16-9.75 572.19-9 572.19-7.85L572.19-7.85Q572.19-6.7 573.09-6.28 573.99-5.85 576.59-5.85L576.59-5.85 582.39-5.85Q586.49-5.85 588.59-4.33 590.69-2.8 590.69 0.5ZM580.19-2L580.19-2 576.94-2Q573.59-2 572.09-0.85 570.59 0.3 570.59 2.15L570.59 2.15Q570.59 6.7 578.39 6.7L578.39 6.7Q582.64 6.7 584.86 5.4 587.09 4.1 587.09 1.6L587.09 1.6Q587.09-0.4 585.56-1.2 584.04-2 580.19-2ZM572.69-19.1L572.69-19.1Q572.69-16.1 574.06-14.55 575.44-13 578.34-13L578.34-13Q581.29-13 582.64-14.55 583.99-16.1 583.99-19.1L583.99-19.1Q583.99-22.1 582.64-23.65 581.29-25.2 578.34-25.2L578.34-25.2Q575.44-25.2 574.06-23.65 572.69-22.1 572.69-19.1ZM612.39-2.05L615.74-3 615.74-14.15Q615.74-17.4 615.56-19 615.39-20.6 614.94-21.5L614.94-21.5Q613.74-23.95 610.54-23.95L610.54-23.95Q609.14-23.95 607.84-23.45 606.54-22.95 605.54-22.1L605.54-22.1Q604.44-21.15 603.91-19.83 603.39-18.5 603.29-16.55L603.29-16.55 603.29-3 606.64-2.05 606.64 0 594.59 0 594.59-2.05 598.44-3 598.44-36 594.59-36.95 594.59-39 603.29-39 603.29-22.3Q604.79-24.7 607.26-26.1 609.74-27.5 612.59-27.5L612.59-27.5Q614.59-27.5 616.19-26.8 617.79-26.1 618.74-24.8L618.74-24.8Q619.74-23.4 620.16-20.88 620.59-18.35 620.59-14.05L620.59-14.05 620.59-3 624.44-2.05 624.44 0 612.39 0 612.39-2.05ZM630.83-24.5L625.98-24.5 625.98-26.3 630.83-27 631.48-33.3 635.68-33.9 635.68-27 642.08-27 642.08-24.5 635.68-24.5 635.68-6.65Q635.68-4.95 635.73-4.33 635.78-3.7 635.93-3.3L635.93-3.3Q636.08-2.95 636.48-2.83 636.88-2.7 637.78-2.7L637.78-2.7 641.28-2.7 641.28-1.25Q638.88-0.35 637.06 0.08 635.23 0.5 634.13 0.5L634.13 0.5Q631.88 0.5 631.23-1.35L631.23-1.35Q631.03-1.95 630.93-2.9 630.83-3.85 630.83-5.7L630.83-5.7 630.83-24.5ZM648.63-5.9L648.63-5.9Q650.23-5.9 651.16-4.78 652.08-3.65 652.08-1.75L652.08-1.75Q652.08 0.95 650.58 3.18 649.08 5.4 645.88 7.45L645.88 7.45 644.78 6.2Q646.93 4.45 648.13 2.9 649.33 1.35 649.43 0.15L649.43 0.15 649.23 0Q648.98 0.45 647.98 0.45L647.98 0.45Q646.88 0.45 646.13-0.43 645.38-1.3 645.38-2.65L645.38-2.65Q645.38-4.1 646.28-5 647.18-5.9 648.63-5.9ZM669.43-2.05L673.28-3 673.28-24 669.43-24.95 669.43-27 676.63-27 677.73-22 677.93-22Q679.38-24.5 681.8-26 684.23-27.5 686.98-27.5L686.98-27.5Q689.03-27.5 690.63-26.73 692.23-25.95 692.98-24.8L692.98-24.8Q693.78-23.55 694.28-21.5L694.28-21.5Q695.88-24.3 698.43-25.9 700.98-27.5 703.88-27.5L703.88-27.5Q705.88-27.5 707.48-26.73 709.08-25.95 709.93-24.6L709.93-24.6Q710.53-23.65 710.88-22.15 711.23-20.65 711.38-18.28 711.53-15.9 711.53-12.25L711.53-12.25 711.53-3 715.38-2.05 715.38 0 703.33 0 703.33-2.05 706.68-3 706.68-14.15Q706.68-17.4 706.5-19 706.33-20.6 705.88-21.5L705.88-21.5Q705.28-22.7 704.2-23.33 703.13-23.95 701.68-23.95L701.68-23.95Q700.43-23.95 699.23-23.45 698.03-22.95 697.08-22.1L697.08-22.1Q695.98-21.1 695.45-19.75 694.93-18.4 694.83-16.35L694.83-16.35 694.83-3 698.18-2.05 698.18 0 686.63 0 686.63-2.05 689.98-3 689.98-14.15Q689.98-17.4 689.8-19 689.63-20.6 689.18-21.5L689.18-21.5Q688.58-22.7 687.5-23.33 686.43-23.95 684.98-23.95L684.98-23.95Q683.73-23.95 682.53-23.45 681.33-22.95 680.38-22.1L680.38-22.1Q679.28-21.1 678.75-19.75 678.23-18.4 678.13-16.35L678.13-16.35 678.13-3 681.48-2.05 681.48 0 669.43 0 669.43-2.05ZM718.27-5.85L718.27-5.85Q718.27-9.75 721.92-12 725.57-14.25 734.02-15.5L734.02-15.5Q733.82-18.45 733.47-20.1 733.12-21.75 732.57-22.75L732.57-22.75Q731.87-24.05 730.62-24.68 729.37-25.3 727.92-25.3L727.92-25.3Q726.52-25.3 725.4-24.8 724.27-24.3 723.87-23.45L723.87-23.45Q724.57-22.95 724.9-22.15 725.22-21.35 725.22-20.65L725.22-20.65Q725.22-19.4 724.4-18.68 723.57-17.95 722.37-17.95L722.37-17.95Q721.17-17.95 720.4-18.75 719.62-19.55 719.62-21L719.62-21Q719.62-23.1 721.07-24.55 722.52-26 724.75-26.75 726.97-27.5 729.22-27.5L729.22-27.5Q731.27-27.5 733-26.88 734.72-26.25 735.92-25.05L735.92-25.05Q739.02-21.95 739.02-14.05L739.02-14.05 739.02-6.8Q739.02-4.35 739.35-3.4 739.67-2.45 740.77-2.45L740.77-2.45 743.02-2.45 743.02-0.95Q739.42 0.5 737.42 0.5L737.42 0.5Q735.87 0.5 735.35-0.63 734.82-1.75 734.82-4.95L734.82-4.95 734.62-4.95Q733.07-2.4 730.52-0.95 727.97 0.5 725.02 0.5L725.02 0.5Q721.87 0.5 720.07-1.2 718.27-2.9 718.27-5.85ZM727.12-2.4L727.12-2.4Q728.52-2.4 730.05-3.13 731.57-3.85 732.62-5.15L732.62-5.15Q733.42-6.15 733.8-7.53 734.17-8.9 734.17-10.75L734.17-10.75Q734.17-11.6 734.12-12.43 734.07-13.25 733.97-14L733.97-14Q729.92-13.2 727.62-12.28 725.32-11.35 724.37-10.08 723.42-8.8 723.42-6.9L723.42-6.9Q723.42-4.75 724.4-3.58 725.37-2.4 727.12-2.4ZM761.72 0L761.72-2.05 764.67-3 756.97-13.4 753.17-10.2 753.17-3 757.02-2.05 757.02 0 744.47 0 744.47-2.05 748.32-3 748.32-36 744.47-36.95 744.47-39 753.17-39 753.17-12.55 763.82-24 760.52-24.95 760.52-27 771.27-27 771.27-24.95 767.62-24 760.07-16.25 770.02-2.9 772.67-2.05 772.67 0 761.72 0ZM796.82-13.2L796.82-13.2 779.37-13.2Q779.37-9.55 780.37-7.15L780.37-7.15Q781.37-4.85 783.22-3.85 785.07-2.85 787.22-2.85L787.22-2.85Q789.57-2.85 791.52-3.83 793.47-4.8 795.02-6.5L795.02-6.5 796.62-5.3Q794.87-2.9 792.37-1.2 789.87 0.5 785.92 0.5L785.92 0.5Q782.47 0.5 779.82-0.98 777.17-2.45 775.77-5.3L775.77-5.3Q775.02-6.85 774.67-8.75 774.32-10.65 774.32-12.8L774.32-12.8Q774.32-19.8 777.54-23.65 780.77-27.5 786.32-27.5L786.32-27.5Q791.42-27.5 794.19-24.33 796.97-21.15 796.97-15.55L796.97-15.55Q796.97-15.05 796.94-14.63 796.92-14.2 796.82-13.2ZM786.02-24.8L786.02-24.8Q780.02-24.8 779.42-15.65L779.42-15.65 791.92-15.65 791.92-17.3Q791.92-20.9 790.39-22.85 788.87-24.8 786.02-24.8ZM817.51-3L817.51-24 813.66-24.95 813.66-27 822.36-27 822.36-3 826.21-2.05 826.21 0 813.66 0 813.66-2.05 817.51-3ZM816.81-35.05L816.81-35.05Q816.81-36.5 817.66-37.35 818.51-38.2 819.91-38.2L819.91-38.2Q821.36-38.2 822.21-37.35 823.06-36.5 823.06-35.05L823.06-35.05Q823.06-33.65 822.21-32.8 821.36-31.95 819.91-31.95L819.91-31.95Q818.46-31.95 817.64-32.77 816.81-33.6 816.81-35.05ZM832.76-24.5L827.91-24.5 827.91-26.3 832.76-27 833.41-33.3 837.61-33.9 837.61-27 844.01-27 844.01-24.5 837.61-24.5 837.61-6.65Q837.61-4.95 837.66-4.33 837.71-3.7 837.86-3.3L837.86-3.3Q838.01-2.95 838.41-2.83 838.81-2.7 839.71-2.7L839.71-2.7 843.21-2.7 843.21-1.25Q840.81-0.35 838.99 0.08 837.16 0.5 836.06 0.5L836.06 0.5Q833.81 0.5 833.16-1.35L833.16-1.35Q832.96-1.95 832.86-2.9 832.76-3.85 832.76-5.7L832.76-5.7 832.76-24.5ZM862.96-24.5L858.11-24.5 858.11-26.3 862.96-27 862.96-27.5Q862.96-33.25 865.46-36.38 867.96-39.5 872.21-39.5L872.21-39.5Q875.16-39.5 876.93-38.08 878.71-36.65 878.71-34.45L878.71-34.45Q878.71-33.05 878.01-32.33 877.31-31.6 876.11-31.6L876.11-31.6Q874.96-31.6 874.26-32.25 873.56-32.9 873.56-34.1L873.56-34.1Q873.56-35.4 874.36-36.7L874.36-36.7Q873.51-37.6 872.06-37.6L872.06-37.6Q870.91-37.6 870.06-37.1L870.06-37.1Q868.96-36.45 868.48-35.25 868.01-34.05 867.91-32.58 867.81-31.1 867.81-29.5L867.81-29.5 867.81-27 874.21-27 874.21-24.5 867.81-24.5 867.81-3 873.21-2.05 873.21 0 859.11 0 859.11-2.05 862.96-3 862.96-24.5ZM877.25-5.85L877.25-5.85Q877.25-9.75 880.9-12 884.55-14.25 893-15.5L893-15.5Q892.8-18.45 892.45-20.1 892.1-21.75 891.55-22.75L891.55-22.75Q890.85-24.05 889.6-24.68 888.35-25.3 886.9-25.3L886.9-25.3Q885.5-25.3 884.38-24.8 883.25-24.3 882.85-23.45L882.85-23.45Q883.55-22.95 883.88-22.15 884.2-21.35 884.2-20.65L884.2-20.65Q884.2-19.4 883.38-18.68 882.55-17.95 881.35-17.95L881.35-17.95Q880.15-17.95 879.38-18.75 878.6-19.55 878.6-21L878.6-21Q878.6-23.1 880.05-24.55 881.5-26 883.73-26.75 885.95-27.5 888.2-27.5L888.2-27.5Q890.25-27.5 891.98-26.88 893.7-26.25 894.9-25.05L894.9-25.05Q898-21.95 898-14.05L898-14.05 898-6.8Q898-4.35 898.33-3.4 898.65-2.45 899.75-2.45L899.75-2.45 902-2.45 902-0.95Q898.4 0.5 896.4 0.5L896.4 0.5Q894.85 0.5 894.33-0.63 893.8-1.75 893.8-4.95L893.8-4.95 893.6-4.95Q892.05-2.4 889.5-0.95 886.95 0.5 884 0.5L884 0.5Q880.85 0.5 879.05-1.2 877.25-2.9 877.25-5.85ZM886.1-2.4L886.1-2.4Q887.5-2.4 889.03-3.13 890.55-3.85 891.6-5.15L891.6-5.15Q892.4-6.15 892.78-7.53 893.15-8.9 893.15-10.75L893.15-10.75Q893.15-11.6 893.1-12.43 893.05-13.25 892.95-14L892.95-14Q888.9-13.2 886.6-12.28 884.3-11.35 883.35-10.08 882.4-8.8 882.4-6.9L882.4-6.9Q882.4-4.75 883.38-3.58 884.35-2.4 886.1-2.4ZM914.4-1.8L914.4-1.8Q917.2-1.8 918.98-2.95 920.75-4.1 920.75-6.15L920.75-6.15Q920.75-7.8 919.65-8.8 918.55-9.8 916.93-10.43 915.3-11.05 913.65-11.5L913.65-11.5Q911.6-12.15 909.7-13.03 907.8-13.9 906.6-15.45 905.4-17 905.4-19.55L905.4-19.55Q905.4-23.15 908.03-25.33 910.65-27.5 915.35-27.5L915.35-27.5Q919.35-27.5 921.68-25.83 924-24.15 924-21.25L924-21.25Q924-19.7 923.3-18.78 922.6-17.85 921.3-17.85L921.3-17.85Q920.15-17.85 919.4-18.55 918.65-19.25 918.65-20.35L918.65-20.35Q918.65-21.3 919.15-22.08 919.65-22.85 920.45-23.2L920.45-23.2Q919.7-24.25 918.53-24.73 917.35-25.2 915.5-25.2L915.5-25.2Q912.5-25.2 911-24.13 909.5-23.05 909.5-20.95L909.5-20.95Q909.5-19.45 910.23-18.57 910.95-17.7 912.35-17.1 913.75-16.5 915.8-15.85L915.8-15.85Q917.5-15.35 919.15-14.73 920.8-14.1 922.15-13.2 923.5-12.3 924.3-10.95 925.1-9.6 925.1-7.6L925.1-7.6Q925.1-5.05 923.7-3.23 922.3-1.4 919.85-0.45 917.4 0.5 914.2 0.5L914.2 0.5Q909.8 0.5 907.1-1.3 904.4-3.1 904.4-6.15L904.4-6.15Q904.4-7.75 905.13-8.68 905.85-9.6 907.2-9.6L907.2-9.6Q908.4-9.6 909.23-8.9 910.05-8.2 910.05-7.05L910.05-7.05Q910.05-6.1 909.53-5.25 909-4.4 908.25-4L908.25-4Q908.9-3.05 910.58-2.43 912.25-1.8 914.4-1.8ZM932.65-24.5L927.8-24.5 927.8-26.3 932.65-27 933.3-33.3 937.5-33.9 937.5-27 943.9-27 943.9-24.5 937.5-24.5 937.5-6.65Q937.5-4.95 937.55-4.33 937.6-3.7 937.75-3.3L937.75-3.3Q937.9-2.95 938.3-2.83 938.7-2.7 939.6-2.7L939.6-2.7 943.1-2.7 943.1-1.25Q940.7-0.35 938.87 0.08 937.05 0.5 935.95 0.5L935.95 0.5Q933.7 0.5 933.05-1.35L933.05-1.35Q932.85-1.95 932.75-2.9 932.65-3.85 932.65-5.7L932.65-5.7 932.65-24.5ZM947.25-2.65L947.25-2.65Q947.25-4.15 948.1-5.03 948.95-5.9 950.4-5.9L950.4-5.9Q951.85-5.9 952.72-5 953.6-4.1 953.6-2.65L953.6-2.65Q953.6-1.2 952.72-0.35 951.85 0.5 950.4 0.5L950.4 0.5Q948.9 0.5 948.07-0.33 947.25-1.15 947.25-2.65Z" opacity="1" transform="matrix(1,0,0,1,0,0)" fill="#ffffff" class="slogan-text-1" data-fill-palette-color="quaternary" id="text-1"></path></svg></g></svg></g></svg></g></svg></g><g><svg viewBox="0 0 127.19923199999998 127.19923199999998" height="127.19923199999998" width="127.19923199999998"><g><svg xmlns="http://www.w3.org/2000/svg" xmlns:xlink="http://www.w3.org/1999/xlink" version="1.1" x="0" y="0" viewBox="0.5 0.5 70.99999237060547 70.99999237060547" enable-background="new 0 0 72 72" xml:space="preserve" height="127.19923199999998" width="127.19923199999998" class="icon-icon-0" data-fill-palette-color="quaternary" id="icon-0"><g fill="#ffffff" data-fill-palette-color="quaternary"><g fill="#ffffff" data-fill-palette-color="quaternary"><path d="M69.8 0.5H2.2c-0.9 0-1.7 0.8-1.7 1.7v67.6c0 0.9 0.8 1.7 1.7 1.7h67.6c0.9 0 1.7-0.8 1.7-1.7V2.2C71.5 1.3 70.7 0.5 69.8 0.5zM25 4.5c1.2 0 2.1 0.9 2.1 2.1 0 1.2-0.9 2.1-2.1 2.1-1.2 0-2.1-0.9-2.1-2.1C22.9 5.4 23.8 4.5 25 4.5zM16.1 4.5c1.2 0 2.1 0.9 2.1 2.1 0 1.2-0.9 2.1-2.1 2.1S14 7.8 14 6.6C14 5.4 15 4.5 16.1 4.5zM7.3 4.5c1.2 0 2.1 0.9 2.1 2.1 0 1.2-0.9 2.1-2.1 2.1S5.2 7.8 5.2 6.6C5.2 5.4 6.1 4.5 7.3 4.5zM66.5 64.8c0 0.9-0.8 1.7-1.7 1.7H7.2c-0.9 0-1.7-0.8-1.7-1.7V16.5c0-0.9 0.8-1.7 1.7-1.7h57.6c0.9 0 1.7 0.8 1.7 1.7V64.8z" fill="#ffffff" data-fill-palette-color="quaternary"></path></g><g fill="#ffffff" data-fill-palette-color="quaternary"><g fill="#ffffff" data-fill-palette-color="quaternary"><g fill="#ffffff" data-fill-palette-color="quaternary"><path d="M50.2 51.4c-0.7 0-1.4-0.3-1.9-0.9-0.9-1-0.7-2.6 0.2-3.5l5.9-5.9c0.5-0.5 0.5-1.4 0-1.9l-5.9-5.9c-0.9-0.9-1.1-2.4-0.3-3.4 1-1.2 2.7-1.2 3.7-0.2l8.8 8.8c0.5 0.5 0.7 1.1 0.7 1.8 0 0.7-0.3 1.3-0.7 1.8L52 50.7C51.5 51.1 50.8 51.4 50.2 51.4z" fill="#ffffff" data-fill-palette-color="quaternary"></path></g><g fill="#ffffff" data-fill-palette-color="quaternary"><path d="M21.8 51.4c-0.6 0-1.3-0.2-1.8-0.7l-8.8-8.8c-0.5-0.5-0.7-1.1-0.7-1.8 0-0.7 0.3-1.3 0.7-1.8l8.7-8.7c0.9-0.9 2.4-1.1 3.4-0.3 1.2 1 1.2 2.7 0.2 3.7l-6 6c-0.5 0.5-0.5 1.4 0 1.9l5.9 5.9c0.9 0.9 1.1 2.5 0.2 3.5C23.2 51.1 22.5 51.4 21.8 51.4z" fill="#ffffff" data-fill-palette-color="quaternary"></path></g></g><g fill="#ffffff" data-fill-palette-color="quaternary"><path d="M30.7 57.4c-0.3 0-0.6 0-0.8-0.1-1.3-0.5-2-1.9-1.5-3.2l10.5-29.5c0.5-1.3 1.9-2 3.2-1.5 1.3 0.5 2 1.9 1.5 3.2L33.1 55.7C32.7 56.7 31.8 57.4 30.7 57.4z" fill="#ffffff" data-fill-palette-color="quaternary"></path></g></g></g></svg></g></svg></g></svg></g></svg></g></svg></g><defs></defs><mask id="7ad4383b-f021-4671-9a06-de49c86a437a"><g id="SvgjsG1901"><svg viewBox="0 0 512 320" height="320" width="512"><g><svg></svg></g><g><svg viewBox="0 0 512 320" height="320" width="512"><g><path xmlns="http://www.w3.org/2000/svg" d="M96 160c0-88.366 71.634-160 160-160 88.366 0 160 71.634 160 160 0 88.366-71.634 160-160 160-88.366 0-160-71.634-160-160z" fill="white" fill-rule="nonzero" stroke="none" stroke-width="1" stroke-linecap="butt" stroke-linejoin="miter" stroke-miterlimit="10" stroke-dasharray="" stroke-dashoffset="0" font-family="none" font-weight="none" font-size="none" text-anchor="none" style="mix-blend-mode: normal"></path></g><g transform="matrix(1,0,0,1,153.6,121.89399804970543)"><svg viewBox="0 0 204.8 76.21200390058914" height="76.21200390058914" width="204.8"><g><svg viewBox="0 0 341.8149553918057 127.19923199999998" height="76.21200390058914" width="204.8"><g transform="matrix(1,0,0,1,135.99095539180576,36.26590486242957)"><svg viewBox="0 0 205.82399999999998 54.66742227514084" height="54.66742227514084" width="205.82399999999998"><g id="SvgjsG1900"><svg viewBox="0 0 205.82399999999998 54.66742227514084" height="54.66742227514084" width="205.82399999999998" id="SvgjsSvg1899"><g></g><g transform="matrix(1,0,0,1,0.5119999999999862,0)"><svg viewBox="0 0 204.8 37.241072331815886" height="37.241072331815886" width="204.8"><g transform="matrix(1,0,0,1,0,0)"><svg width="204.8" viewBox="2.690000057220459 -34.689998626708984 193.0500030517578 35.1099967956543" height="37.241072331815886" data-palette-color="#ffffff"></svg></g></svg></g><g transform="matrix(1,0,0,1,0,48.51206172011088)"><svg viewBox="0 0 120.23807999999998 6.155360555029958" height="6.155360555029958" width="120.23807999999998"><g transform="matrix(1,0,0,1,0,0)"><svg width="120.23807999999998" viewBox="2.4000000953674316 -39.5 951.199951171875 48.70000076293945" height="6.155360555029958" data-palette-color="#ffffff"></svg></g></svg></g></svg></g></svg></g><g><svg viewBox="0 0 127.19923199999998 127.19923199999998" height="127.19923199999998" width="127.19923199999998"><g><svg xmlns="http://www.w3.org/2000/svg" xmlns:xlink="http://www.w3.org/1999/xlink" version="1.1" x="0" y="0" viewBox="0.5 0.5 70.99999237060547 70.99999237060547" enable-background="new 0 0 72 72" xml:space="preserve" height="127.19923199999998" width="127.19923199999998" class="icon-icon-0" data-fill-palette-color="quaternary" id="SvgjsSvg1895"></svg></g></svg></g></svg></g></svg></g></svg></g><defs></defs></svg></g></mask><linearGradient x1="0" x2="1" y1="0.5" y2="0.5" id="1a25d7ff-0425-4c33-9f7b-5ea7d55a9f91"><stop stop-color="#f00b51" offset="0"></stop><stop stop-color="#730062" offset="1"></stop></linearGradient></svg><rect width="512" height="320" fill="none" stroke="none" visibility="hidden"></rect></g></svg></g></svg>